<?xml version="1.0" encoding="utf-8"?>
<!-- Generator: Adobe Illustrator 27.4.1, SVG Export Plug-In . SVG Version: 6.00 Build 0)  -->
<svg version="1.1" id="Laag_1" xmlns="http://www.w3.org/2000/svg" xmlns:xlink="http://www.w3.org/1999/xlink" x="0px" y="0px"
	 viewBox="0 0 500 330" style="enable-background:new 0 0 500 330;" xml:space="preserve">
<style type="text/css">
	.st0{fill:#7823C4;}
	.st1{fill:#A369D6;}
	.st2{fill:#D4B9EC;}
	.st3{fill:none;stroke:#000000;}
	.st4{font-family:'Helvetica';}
	.st5{font-size:11px;}
	.st6{font-family:'ArialMT';}
</style>
<polygon class="st0" points="85.5,62 20,269 315.4,269 343.3,62 "/>
<polygon class="st1" points="340.4,62 315.7,269 475.7,269 480,62 "/>
<polygon class="st2" points="20,62 475.7,269 479.9,269 23.7,62 "/>
<g transform="translate(0,60)">
	<g transform="translate(20,0)">
		<line class="st3" x1="0" y1="0" x2="0" y2="-6"/>
		<text transform="matrix(6.123234e-17 -1 1 6.123234e-17 2 -8.9996)" class="st4 st5">0.0b</text>
	</g>
	<g transform="translate(69.9348675640469,0)">
		<line class="st3" x1="0" y1="0" x2="0" y2="-6"/>
		<text transform="matrix(6.123234e-17 -1 1 6.123234e-17 2 -8.9996)" class="st4 st5">1.0kb</text>
	</g>
	<g transform="translate(119.86973512809378,0)">
		<line class="st3" x1="0" y1="0" x2="0" y2="-6"/>
		<text transform="matrix(6.123234e-17 -1 1 6.123234e-17 2 -8.9996)" class="st4 st5">2.0kb</text>
	</g>
	<g transform="translate(169.80460269214072,0)">
		<line class="st3" x1="0" y1="0" x2="0" y2="-6"/>
		<text transform="matrix(6.123234e-17 -1 1 6.123234e-17 2 -8.9996)" class="st4 st5">3.0kb</text>
	</g>
	<g transform="translate(219.73947025618756,0)">
		<line class="st3" x1="0" y1="0" x2="0" y2="-6"/>
		<text transform="matrix(6.123234e-17 -1 1 6.123234e-17 2 -8.9996)" class="st4 st5">4.0kb</text>
	</g>
	<g transform="translate(269.6743378202345,0)">
		<line class="st3" x1="0" y1="0" x2="0" y2="-6"/>
		<text transform="matrix(6.123234e-17 -1 1 6.123234e-17 2 -8.9996)" class="st4 st5">5.0kb</text>
	</g>
	<g transform="translate(319.60920538428144,0)">
		<line class="st3" x1="0" y1="0" x2="0" y2="-6"/>
		<text transform="matrix(6.123234e-17 -1 1 6.123234e-17 2 -8.9996)" class="st4 st5">6.0kb</text>
	</g>
	<g transform="translate(369.5440729483283,0)">
		<line class="st3" x1="0" y1="0" x2="0" y2="-6"/>
		<text transform="matrix(6.123234e-17 -1 1 6.123234e-17 2 -8.9996)" class="st4 st5">7.0kb</text>
	</g>
	<g transform="translate(419.4789405123751,0)">
		<line class="st3" x1="0" y1="0" x2="0" y2="-6"/>
		<text transform="matrix(6.123234e-17 -1 1 6.123234e-17 2 -8.9996)" class="st4 st5">8.0kb</text>
	</g>
	<g transform="translate(469.413808076422,0)">
		<line class="st3" x1="0" y1="0" x2="0" y2="-6"/>
		<text transform="matrix(6.123234e-17 -1 1 6.123234e-17 2 -8.9996)" class="st4 st5">9.0kb</text>
	</g>
	<path class="st3" d="M20-6v6h460v-6"/>
</g>
<g transform="translate(0,270)">
	<g transform="translate(480,0)">
		<line class="st3" x1="0" y1="0" x2="0" y2="6"/>
		<text transform="matrix(6.123234e-17 -1 1 6.123234e-17 3 32.4095)" class="st4 st5">0.0b</text>
	</g>
	<g transform="translate(422.79318492724786,0)">
		<line class="st3" x1="0" y1="0" x2="0" y2="6"/>
		<text transform="matrix(6.123234e-17 -1 1 6.123234e-17 3 37.9095)" class="st4 st5">1.0kb</text>
	</g>
	<g transform="translate(365.58636985449573,0)">
		<line class="st3" x1="0" y1="0" x2="0" y2="6"/>
		<text transform="matrix(6.123234e-17 -1 1 6.123234e-17 3 37.9095)" class="st4 st5">2.0kb</text>
	</g>
	<g transform="translate(308.37955478174354,0)">
		<line class="st3" x1="0" y1="0" x2="0" y2="6"/>
		<text transform="matrix(6.123234e-17 -1 1 6.123234e-17 3 37.9095)" class="st4 st5">3.0kb</text>
	</g>
	<g transform="translate(251.17273970899143,0)">
		<line class="st3" x1="0" y1="0" x2="0" y2="6"/>
		<text transform="matrix(6.123234e-17 -1 1 6.123234e-17 3 37.9095)" class="st4 st5">4.0kb</text>
	</g>
	<g transform="translate(193.96592463623927,0)">
		<line class="st3" x1="0" y1="0" x2="0" y2="6"/>
		<text transform="matrix(6.123234e-17 -1 1 6.123234e-17 3 37.9095)" class="st4 st5">5.0kb</text>
	</g>
	<g transform="translate(136.75910956348713,0)">
		<line class="st3" x1="0" y1="0" x2="0" y2="6"/>
		<text transform="matrix(6.123234e-17 -1 1 6.123234e-17 3 37.9095)" class="st4 st5">6.0kb</text>
	</g>
	<g transform="translate(79.552294490735,0)">
		<line class="st3" x1="0" y1="0" x2="0" y2="6"/>
		<text transform="matrix(6.123234e-17 -1 1 6.123234e-17 3 37.9095)" class="st4 st5">7.0kb</text>
	</g>
	<g transform="translate(22.345479417982816,0)">
		<line class="st3" x1="0" y1="0" x2="0" y2="6"/>
		<text transform="matrix(6.123234e-17 -1 1 6.123234e-17 3 37.9095)" class="st4 st5">8.0kb</text>
	</g>
	<path class="st3" d="M20,6V0h460v6"/>
</g>
<text transform="matrix(1 0 0 1 234.2092 12)" class="st6 st5">pWCP</text>
<text transform="matrix(1 0 0 1 121.5745 325)" class="st6 st5">NODE_43_length_8041_cov_43.404319_MEMO129</text>
</svg>
