<?xml version="1.0" encoding="utf-8"?>
<!-- Generator: Adobe Illustrator 27.4.1, SVG Export Plug-In . SVG Version: 6.00 Build 0)  -->
<svg version="1.1" id="Laag_1" xmlns="http://www.w3.org/2000/svg" xmlns:xlink="http://www.w3.org/1999/xlink" x="0px" y="0px"
	 viewBox="0 0 500 330" style="enable-background:new 0 0 500 330;" xml:space="preserve">
<style type="text/css">
	.st0{fill:#F2CA66;}
	.st1{fill:none;stroke:#000000;}
	.st2{font-family:'Helvetica';}
	.st3{font-size:11px;}
	.st4{font-family:'ArialMT';}
</style>
<polygon class="st0" points="20,62 171.6,269 480,269 156.5,62 "/>
<g transform="translate(0,60)">
	<g transform="translate(20,0)">
		<line class="st1" x1="0" y1="0" x2="0" y2="-6"/>
		<text transform="matrix(6.123234e-17 -1 1 6.123234e-17 2 -8.9996)" class="st2 st3">0.0b</text>
	</g>
	<g transform="translate(69.9348675640469,0)">
		<line class="st1" x1="0" y1="0" x2="0" y2="-6"/>
		<text transform="matrix(6.123234e-17 -1 1 6.123234e-17 2 -8.9996)" class="st2 st3">1.0kb</text>
	</g>
	<g transform="translate(119.86973512809378,0)">
		<line class="st1" x1="0" y1="0" x2="0" y2="-6"/>
		<text transform="matrix(6.123234e-17 -1 1 6.123234e-17 2 -8.9996)" class="st2 st3">2.0kb</text>
	</g>
	<g transform="translate(169.80460269214072,0)">
		<line class="st1" x1="0" y1="0" x2="0" y2="-6"/>
		<text transform="matrix(6.123234e-17 -1 1 6.123234e-17 2 -8.9996)" class="st2 st3">3.0kb</text>
	</g>
	<g transform="translate(219.73947025618756,0)">
		<line class="st1" x1="0" y1="0" x2="0" y2="-6"/>
		<text transform="matrix(6.123234e-17 -1 1 6.123234e-17 2 -8.9996)" class="st2 st3">4.0kb</text>
	</g>
	<g transform="translate(269.6743378202345,0)">
		<line class="st1" x1="0" y1="0" x2="0" y2="-6"/>
		<text transform="matrix(6.123234e-17 -1 1 6.123234e-17 2 -8.9996)" class="st2 st3">5.0kb</text>
	</g>
	<g transform="translate(319.60920538428144,0)">
		<line class="st1" x1="0" y1="0" x2="0" y2="-6"/>
		<text transform="matrix(6.123234e-17 -1 1 6.123234e-17 2 -8.9996)" class="st2 st3">6.0kb</text>
	</g>
	<g transform="translate(369.5440729483283,0)">
		<line class="st1" x1="0" y1="0" x2="0" y2="-6"/>
		<text transform="matrix(6.123234e-17 -1 1 6.123234e-17 2 -8.9996)" class="st2 st3">7.0kb</text>
	</g>
	<g transform="translate(419.4789405123751,0)">
		<line class="st1" x1="0" y1="0" x2="0" y2="-6"/>
		<text transform="matrix(6.123234e-17 -1 1 6.123234e-17 2 -8.9996)" class="st2 st3">8.0kb</text>
	</g>
	<g transform="translate(469.413808076422,0)">
		<line class="st1" x1="0" y1="0" x2="0" y2="-6"/>
		<text transform="matrix(6.123234e-17 -1 1 6.123234e-17 2 -8.9996)" class="st2 st3">9.0kb</text>
	</g>
	<path class="st1" d="M20-6v6h460v-6"/>
</g>
<g transform="translate(0,270)">
	<g transform="translate(20,0)">
		<line class="st1" x1="0" y1="0" x2="0" y2="6"/>
		<text transform="matrix(6.123234e-17 -1 1 6.123234e-17 3 32.4095)" class="st2 st3">0.0b</text>
	</g>
	<g transform="translate(76.44171779141104,0)">
		<line class="st1" x1="0" y1="0" x2="0" y2="6"/>
		<text transform="matrix(6.123234e-17 -1 1 6.123234e-17 3 35.4711)" class="st2 st3">500b</text>
	</g>
	<g transform="translate(132.88343558282207,0)">
		<line class="st1" x1="0" y1="0" x2="0" y2="6"/>
		<text transform="matrix(6.123234e-17 -1 1 6.123234e-17 3 37.9095)" class="st2 st3">1.0kb</text>
	</g>
	<g transform="translate(189.32515337423314,0)">
		<line class="st1" x1="0" y1="0" x2="0" y2="6"/>
		<text transform="matrix(6.123234e-17 -1 1 6.123234e-17 3 37.9095)" class="st2 st3">1.5kb</text>
	</g>
	<g transform="translate(245.76687116564418,0)">
		<line class="st1" x1="0" y1="0" x2="0" y2="6"/>
		<text transform="matrix(6.123234e-17 -1 1 6.123234e-17 3 37.9095)" class="st2 st3">2.0kb</text>
	</g>
	<g transform="translate(302.2085889570552,0)">
		<line class="st1" x1="0" y1="0" x2="0" y2="6"/>
		<text transform="matrix(6.123234e-17 -1 1 6.123234e-17 3 37.9095)" class="st2 st3">2.5kb</text>
	</g>
	<g transform="translate(358.6503067484663,0)">
		<line class="st1" x1="0" y1="0" x2="0" y2="6"/>
		<text transform="matrix(6.123234e-17 -1 1 6.123234e-17 3 37.9095)" class="st2 st3">3.0kb</text>
	</g>
	<g transform="translate(415.0920245398773,0)">
		<line class="st1" x1="0" y1="0" x2="0" y2="6"/>
		<text transform="matrix(6.123234e-17 -1 1 6.123234e-17 3 37.9095)" class="st2 st3">3.5kb</text>
	</g>
	<g transform="translate(471.53374233128835,0)">
		<line class="st1" x1="0" y1="0" x2="0" y2="6"/>
		<text transform="matrix(6.123234e-17 -1 1 6.123234e-17 3 37.9095)" class="st2 st3">4.0kb</text>
	</g>
	<path class="st1" d="M20,6V0h460v6"/>
</g>
<text transform="matrix(1 0 0 1 234.2092 12)" class="st4 st3">pWCP</text>
<text transform="matrix(1 0 0 1 127.6921 325)" class="st4 st3">NODE_2_length_4075_cov_4.774137_MEMO126</text>
</svg>
