<?xml version="1.0" encoding="utf-8"?>
<!-- Generator: Adobe Illustrator 27.4.1, SVG Export Plug-In . SVG Version: 6.00 Build 0)  -->
<svg version="1.1" id="Laag_1" xmlns="http://www.w3.org/2000/svg" xmlns:xlink="http://www.w3.org/1999/xlink" x="0px" y="0px"
	 viewBox="0 0 500 330" style="enable-background:new 0 0 500 330;" xml:space="preserve">
<style type="text/css">
	.st0{fill:#1D88C2;}
	.st1{fill:none;stroke:#000000;}
	.st2{font-family:'Helvetica';}
	.st3{font-size:11px;}
	.st4{font-family:'ArialMT';}
</style>
<polygon class="st0" points="20,62 20.2,269 479.9,269 286.7,62 "/>
<g transform="translate(0,60)">
	<g transform="translate(20,0)">
		<line class="st1" x1="0" y1="0" x2="0" y2="-6"/>
		<text transform="matrix(6.123234e-17 -1 1 6.123234e-17 2 -8.9996)" class="st2 st3">0.0b</text>
	</g>
	<g transform="translate(69.9348675640469,0)">
		<line class="st1" x1="0" y1="0" x2="0" y2="-6"/>
		<text transform="matrix(6.123234e-17 -1 1 6.123234e-17 2 -8.9996)" class="st2 st3">1.0kb</text>
	</g>
	<g transform="translate(119.86973512809378,0)">
		<line class="st1" x1="0" y1="0" x2="0" y2="-6"/>
		<text transform="matrix(6.123234e-17 -1 1 6.123234e-17 2 -8.9996)" class="st2 st3">2.0kb</text>
	</g>
	<g transform="translate(169.80460269214072,0)">
		<line class="st1" x1="0" y1="0" x2="0" y2="-6"/>
		<text transform="matrix(6.123234e-17 -1 1 6.123234e-17 2 -8.9996)" class="st2 st3">3.0kb</text>
	</g>
	<g transform="translate(219.73947025618756,0)">
		<line class="st1" x1="0" y1="0" x2="0" y2="-6"/>
		<text transform="matrix(6.123234e-17 -1 1 6.123234e-17 2 -8.9996)" class="st2 st3">4.0kb</text>
	</g>
	<g transform="translate(269.6743378202345,0)">
		<line class="st1" x1="0" y1="0" x2="0" y2="-6"/>
		<text transform="matrix(6.123234e-17 -1 1 6.123234e-17 2 -8.9996)" class="st2 st3">5.0kb</text>
	</g>
	<g transform="translate(319.60920538428144,0)">
		<line class="st1" x1="0" y1="0" x2="0" y2="-6"/>
		<text transform="matrix(6.123234e-17 -1 1 6.123234e-17 2 -8.9996)" class="st2 st3">6.0kb</text>
	</g>
	<g transform="translate(369.5440729483283,0)">
		<line class="st1" x1="0" y1="0" x2="0" y2="-6"/>
		<text transform="matrix(6.123234e-17 -1 1 6.123234e-17 2 -8.9996)" class="st2 st3">7.0kb</text>
	</g>
	<g transform="translate(419.4789405123751,0)">
		<line class="st1" x1="0" y1="0" x2="0" y2="-6"/>
		<text transform="matrix(6.123234e-17 -1 1 6.123234e-17 2 -8.9996)" class="st2 st3">8.0kb</text>
	</g>
	<g transform="translate(469.413808076422,0)">
		<line class="st1" x1="0" y1="0" x2="0" y2="-6"/>
		<text transform="matrix(6.123234e-17 -1 1 6.123234e-17 2 -8.9996)" class="st2 st3">9.0kb</text>
	</g>
	<path class="st1" d="M20-6v6h460v-6"/>
</g>
<g transform="translate(0,270)">
	<g transform="translate(480,0)">
		<line class="st1" x1="0" y1="0" x2="0" y2="6"/>
		<text transform="matrix(6.123234e-17 -1 1 6.123234e-17 3 32.4095)" class="st2 st3">0.0b</text>
	</g>
	<g transform="translate(436.9530226464533,0)">
		<line class="st1" x1="0" y1="0" x2="0" y2="6"/>
		<text transform="matrix(6.123234e-17 -1 1 6.123234e-17 3 35.4711)" class="st2 st3">500b</text>
	</g>
	<g transform="translate(393.9060452929066,0)">
		<line class="st1" x1="0" y1="0" x2="0" y2="6"/>
		<text transform="matrix(6.123234e-17 -1 1 6.123234e-17 3 37.9095)" class="st2 st3">1.0kb</text>
	</g>
	<g transform="translate(350.85906793935993,0)">
		<line class="st1" x1="0" y1="0" x2="0" y2="6"/>
		<text transform="matrix(6.123234e-17 -1 1 6.123234e-17 3 37.9095)" class="st2 st3">1.5kb</text>
	</g>
	<g transform="translate(307.8120905858132,0)">
		<line class="st1" x1="0" y1="0" x2="0" y2="6"/>
		<text transform="matrix(6.123234e-17 -1 1 6.123234e-17 3 37.9095)" class="st2 st3">2.0kb</text>
	</g>
	<g transform="translate(264.7651132322665,0)">
		<line class="st1" x1="0" y1="0" x2="0" y2="6"/>
		<text transform="matrix(6.123234e-17 -1 1 6.123234e-17 3 37.9095)" class="st2 st3">2.5kb</text>
	</g>
	<g transform="translate(221.71813587871983,0)">
		<line class="st1" x1="0" y1="0" x2="0" y2="6"/>
		<text transform="matrix(6.123234e-17 -1 1 6.123234e-17 3 37.9095)" class="st2 st3">3.0kb</text>
	</g>
	<g transform="translate(178.67115852517315,0)">
		<line class="st1" x1="0" y1="0" x2="0" y2="6"/>
		<text transform="matrix(6.123234e-17 -1 1 6.123234e-17 3 37.9095)" class="st2 st3">3.5kb</text>
	</g>
	<g transform="translate(135.62418117162642,0)">
		<line class="st1" x1="0" y1="0" x2="0" y2="6"/>
		<text transform="matrix(6.123234e-17 -1 1 6.123234e-17 3 37.9095)" class="st2 st3">4.0kb</text>
	</g>
	<g transform="translate(92.57720381807975,0)">
		<line class="st1" x1="0" y1="0" x2="0" y2="6"/>
		<text transform="matrix(6.123234e-17 -1 1 6.123234e-17 3 37.9095)" class="st2 st3">4.5kb</text>
	</g>
	<g transform="translate(49.53022646453303,0)">
		<line class="st1" x1="0" y1="0" x2="0" y2="6"/>
		<text transform="matrix(6.123234e-17 -1 1 6.123234e-17 3 37.9095)" class="st2 st3">5.0kb</text>
	</g>
	<path class="st1" d="M20,6V0h460v6"/>
</g>
<text transform="matrix(1 0 0 1 234.2092 12)" class="st4 st3">pWCP</text>
<text transform="matrix(1 0 0 1 125.0417 325)" class="st4 st3">NODE_4_length_5343_cov_15.119256_MEMO134</text>
</svg>
